<?xml version="1.0" encoding="UTF-8"?>
<svg width="45px" height="48px" viewBox="0 0 54 48" version="1.1" xmlns="http://www.w3.org/2000/svg" xmlns:xlink="http://www.w3.org/1999/xlink">
  <title>质检记录</title>
  <g style="transform: translateX(5px)" id="外发加工" stroke="none" stroke-width="1" fill="none" fill-rule="evenodd">
    <g id="裁片仓管理" transform="translate(-273.000000, -1191.000000)" fill-rule="nonzero">
      <g id="出库" transform="translate(14.500000, 1130.000000)">
        <g id="添加外协" transform="translate(230.500000, 43.000000)">
          <g id="质检记录" transform="translate(28.000000, 18.000000)">
            <g>
              <path d="M38.5714286,0 C42.1218305,0 45,2.93049982 45,6.54545455 L45,41.4545454 C45,45.0695002 42.1218305,48 38.5714286,48 L10.7142857,48 C7.57728738,48 4.89834701,45.6946652 4.37464286,42.5454546 L6.96428573,42.5454546 C9.58279569,42.5454116 11.7226005,40.4174112 11.7842981,37.7520322 C11.8459957,35.0866531 9.80702908,32.858374 7.19142855,32.7327273 L6.96428573,32.7272728 L4.28571427,32.7272728 L4.28571427,28.9090909 L6.96428573,28.9090909 C9.53877501,28.9090889 11.6590701,26.8496604 11.7803571,24.2312727 L11.7857143,24 C11.7857143,21.3787018 9.76305928,19.2198559 7.19142855,19.0963636 L6.96428573,19.0909091 L4.28571427,19.0909091 L4.28571427,15.2727272 L6.96428573,15.2727272 C9.53877501,15.2727252 11.6590701,13.2132967 11.7803571,10.5949091 L11.7857143,10.3636363 C11.7857143,7.74233814 9.76305928,5.58349224 7.19142855,5.45999999 L6.96428573,5.45454542 L4.37464286,5.45454542 C4.89834701,2.30533481 7.57728738,0 10.7142857,0 L38.5714286,0 Z M6.96428573,36 C7.85188622,36 8.57142859,36.732625 8.57142859,37.6363637 C8.57142859,38.5401023 7.85188622,39.2727273 6.96428573,39.2727273 L1.60714286,39.2727273 C0.719542366,39.2727273 0,38.5401023 0,37.6363637 C0,36.732625 0.719542366,36 1.60714286,36 L6.96428573,36 Z M6.96428573,22.3636364 C7.85188622,22.3636364 8.57142859,23.0962613 8.57142859,24 C8.57142859,24.9037387 7.85188622,25.6363636 6.96428573,25.6363636 L1.60714286,25.6363636 C0.719542366,25.6363636 0,24.9037387 0,24 C0,23.0962613 0.719542366,22.3636364 1.60714286,22.3636364 L6.96428573,22.3636364 Z M6.96428573,8.7272727 C7.85188622,8.7272727 8.57142859,9.45989765 8.57142859,10.3636363 C8.57142859,11.267375 7.85188622,12 6.96428573,12 L1.60714286,12 C0.719542366,12 0,11.267375 0,10.3636363 C0,9.45989765 0.719542366,8.7272727 1.60714286,8.7272727 L6.96428573,8.7272727 Z" id="形状" fill="#497FF4"></path>
              <path style="transform-origin: 26px 26px" d="M37.0572668,13.9420155 C36.4527208,13.3388586 35.6327191,13 34.7776896,13 C33.9226601,13 33.1026583,13.3388586 32.4981124,13.9420155 L17.0552257,29.3489535 C16.7224812,29.6807254 16.5080714,30.1122527 16.4449029,30.5773069 L16.0097255,33.7843167 C15.9643385,34.1187135 16.0794647,34.4549075 16.3204565,34.69172 C16.5614483,34.9285325 16.9001652,35.0383109 17.2346692,34.9880172 L20.4012561,34.5121107 C20.8557233,34.4441437 21.2763812,34.2326431 21.601486,33.9086526 L37.0561923,18.490996 C38.3146026,17.2353106 38.3146026,15.1998446 37.0561923,13.9441593 L37.0572668,13.9420155 Z" id="路径" fill="#ECF2FF">
                <animateTransform attributeName="transform" type="scale" values="0.8;1.1;0.8" dur="2s" repeatCount="indefinite" />
                <animate attributeName="opacity" values="0.8;1.1;0.8" dur="2s" repeatCount="indefinite" />
              </path>
              <animateTransform attributeName="transform" type="rotate" values="6 0 0;-6 0 0;6 0 0" dur="3s" repeatCount="indefinite" />
            </g>
          </g>
        </g>
      </g>
    </g>
  </g>
</svg>