<?xml version="1.0" encoding="UTF-8"?>
<svg width="46px" height="60px" viewBox="0 0 54 48" version="1.1" xmlns="http://www.w3.org/2000/svg" xmlns:xlink="http://www.w3.org/1999/xlink">
  <title>个人产量报工</title>
  <g id="个人产量报工" stroke="none" stroke-width="1" fill="none" fill-rule="evenodd">
    <g id="个人产量报工" transform="translate(-372.000000, -61.000000)">
      <g id="个人产量报工" transform="translate(345.000000, 43.000000)">
        <g id="个人产量报工" transform="translate(27.000000, 18.000000)">
          <g style="transform-origin: center">
            <path d="M2.41594458,45.9978583 C1.08165523,45.9978583 0,44.9219909 0,43.5948412 L0,2.40087532 C0.00118847396,1.07456212 1.08249569,0 2.41594458,0 L38.5905152,0 C39.9197639,0.00353042602 40.9964505,1.0744558 41,2.39659181 L41,27.2684607 C35.9013019,25.2454017 30.0726639,26.93609 26.866557,31.3680887 C23.6604501,35.8000875 23.9009009,41.834294 27.4496087,46 L2.41594458,45.9978583 Z M5.90205349,32.1687309 C5.90250328,32.9454955 6.50746238,33.5893287 7.28659207,33.6422386 L16.661835,33.6422386 C17.4415154,33.5909823 18.0475804,32.9470021 18.0475804,32.1698017 C18.0475804,31.3926013 17.4415154,30.7486211 16.661835,30.6973648 L7.28659207,30.6973648 C6.50440329,30.7448782 5.89425789,31.3892784 5.89344046,32.1687309 L5.90205349,32.1687309 Z M7.1703167,25.7692523 L22.9902316,25.7692523 C23.6686558,25.5955903 24.1428566,24.9871724 24.1428566,24.2903902 C24.1428566,23.593608 23.6686558,22.9851901 22.9902316,22.8115281 L7.1703167,22.8115281 C6.5286487,22.8008195 6.02048214,23.4904554 6.02048214,24.300028 C5.94454453,25.0173954 6.45216245,25.6672314 7.1703167,25.7692523 Z M6.2078147,15.9301611 C5.95976048,16.3926223 5.95976048,16.9476329 6.2078147,17.4100941 C6.4454062,17.8543894 6.90772758,18.1344037 7.41363375,18.1404228 L26.1641195,18.1404228 C26.9426385,18.0892054 27.5477828,17.4461727 27.5477828,16.6701276 C27.5477828,15.8940824 26.9426385,15.2510497 26.1641195,15.1998324 L7.41363375,15.1998324 C6.9043615,15.2017813 6.4375487,15.4825107 6.19920176,15.9301611 L6.2078147,15.9301611 Z" id="形状" fill="#FFD347" fill-rule="nonzero"></path>
            <circle style="transform-origin: 33px 38px" id="椭圆形" fill="#FFE697" cx="36" cy="38" r="10">
              <animateTransform attributeName="transform" type="scale" values="0.8;1.1;0.8" dur="3s" repeatCount="indefinite" />
            </circle>
            <path style="transform-origin: 36px 36px" d="M37.7506562,37.4666667 C40.6497887,37.4666667 43,39.66102 43,42.367892 L43,44 L29,44 L29,42.367892 C29,39.66102 31.3502113,37.4666667 34.2493438,37.4666667 L37.7506562,37.4666667 Z M36.0012248,30 C38.1781861,30 39.2666667,31.0884806 39.2666667,33.2654418 L39.2666667,33.2678915 C39.2666667,35.4448527 38.1781861,36.5333333 36.0012248,36.5333333 L35.9987752,36.5333333 C33.8218139,36.5333333 32.7333333,35.4448527 32.7333333,33.2678915 L32.7333333,33.2654418 C32.7333333,31.0884806 33.8218139,30 35.9987752,30 L36.0012248,30 Z" id="形状结合" fill="#FFF8E5" fill-rule="nonzero">
              <animateTransform attributeName="transform" type="scale" values="0.6;1;0.6" dur="3s" repeatCount="indefinite" />
            </path>
          </g>
        </g>
      </g>
    </g>
    <animateTransform attributeName="transform" type="translate" values="0 -2;0 3;0 -2" dur="3s" repeatCount="indefinite" />
  </g>
</svg>