<?xml version="1.0" encoding="UTF-8"?>
<svg width="45px" height="60px" viewBox="0 0 54 48" version="1.1" xmlns="http://www.w3.org/2000/svg" xmlns:xlink="http://www.w3.org/1999/xlink">
  <title>颜色尺码报工</title>
  <g id="外发加工" stroke="none" stroke-width="1" fill="none" fill-rule="evenodd">
    <g id="裁片仓管理" transform="translate(-43.000000, -1018.000000)" fill-rule="nonzero">
      <g id="出库" transform="translate(15.000000, 957.000000)">
        <g id="添加外协" transform="translate(0.000000, 43.000000)">
          <g id="颜色尺码报工" transform="translate(28.000000, 18.000000)">
            <path d="M38.5714286,3.2 L35.3571429,3.2 L35.3571429,1.6 C35.3571429,0.7163444 34.6376005,0 33.75,0 C32.8623995,0 32.1428571,0.7163444 32.1428571,1.6 L32.1428571,3.2 L12.8571429,3.2 L12.8571429,1.6 C12.8571429,0.7163444 12.1376005,0 11.25,0 C10.3623995,0 9.64285714,0.7163444 9.64285714,1.6 L9.64285714,3.2 L6.42857143,3.2 C2.87816947,3.2 0,6.0653776 0,9.6 L0,41.6 C0,45.1346224 2.87816947,48 6.42857143,48 L38.5714286,48 C42.1218305,48 45,45.1346224 45,41.6 L45,9.6 C45,6.0653776 42.1218305,3.2 38.5714286,3.2 Z" id="形状" fill="#FFD347"></path>
            <path style="transform-origin: 21px 30px" d="M33.0595285,16.5498663 L23.5421145,25.8647416 C23.5066859,25.8962534 23.4938028,25.943521 23.4615949,25.9813352 C22.8360769,25.6964083 22.1546947,25.5480236 21.4647094,25.5464729 C20.3599808,25.5464729 19.3550965,25.924614 18.5402384,26.5327909 L12.5366987,21.4278863 C11.8900423,20.8997521 10.9302604,20.9753211 10.3782475,21.5978332 C9.82623453,22.2203452 9.88518726,23.1606528 10.5108261,23.7124886 L16.8138986,29.0694873 C16.6996897,29.4611796 16.6390405,29.865953 16.6335348,30.2732365 C16.6335348,32.8837559 18.7965254,35 21.4647094,35 C24.1328935,35 26.2958841,32.8837559 26.2958841,30.2732365 C26.2896054,29.5739632 26.1269032,28.8845163 25.8192082,28.2533328 C25.851416,28.2281234 25.8900654,28.2155187 25.9222732,28.1871581 L35.4396872,18.875434 C35.9044373,18.4679321 36.1008271,17.8424294 35.9500477,17.2499322 C35.7992684,16.6574351 35.3260326,16.1950533 34.7202439,16.048335 C34.1144553,15.9016168 33.4754021,16.094609 33.0595285,16.5498663 Z M21.4647094,31.8488243 C20.5789941,31.8488243 19.8543179,31.1398098 19.8543179,30.2732365 C19.8543179,29.4066631 20.5789941,28.6976486 21.4647094,28.6976486 C22.3504248,28.6976486 23.075101,29.4066631 23.075101,30.2732365 C23.075101,31.1398098 22.3504248,31.8488243 21.4647094,31.8488243 Z" id="形状" fill="#FFF8E5">
                <animateTransform attributeName="transform" type="rotate" values="0 0 0;360 0 0" dur="5s" repeatCount="indefinite" />
            </path>
          </g>
        </g>
      </g>
    </g>
	<animateTransform attributeName="transform" type="translate" values="0 -2;0 3;0 -2" dur="3s" repeatCount="indefinite" />
  </g>
</svg>