<?xml version="1.0" encoding="UTF-8"?>
<svg width="50px" height="45px" viewBox="0 0 50 49" version="1.1" xmlns="http://www.w3.org/2000/svg" xmlns:xlink="http://www.w3.org/1999/xlink">
  <title>产量查询</title>
  <g style="transform: translateY(2px)" id="外发加工" stroke="none" stroke-width="1" fill="none" fill-rule="evenodd">
    <g id="裁片仓管理" transform="translate(-271.000000, -1022.000000)" fill="#497FF4" fill-rule="nonzero">
      <g id="出库" transform="translate(15.000000, 957.000000)">
        <g id="添加外协" transform="translate(230.000000, 43.000000)">
          <g id="产量查询" transform="translate(26.000000, 22.000000)">
            <g style="transform-origin: center">
              <path d="M47.1021776,26.5782579 C47.1403531,26.6178526 47.1776707,26.6578777 47.2154173,26.6979027 C47.5467539,27.0370381 47.8547268,27.3983839 48.1372055,27.7794405 L48.0454127,10.2200526 C48.0377094,9.22552867 47.7230183,8.25783991 47.1446425,7.45014517 L41.9574927,1.91334307 C41.0691033,0.6940997 39.6476732,-0.0185185209 38.1425162,0.000366133176 L23.9592451,0.0683162377 L9.7759741,0.135885422 C8.27119913,0.130758534 6.85707611,0.856951527 5.98115767,2.08463321 L0.871645689,7.67221981 C0.301586068,8.48559784 -0.00294441037,9.4563873 2.14595604e-05,10.4507347 L0.143308609,37.8356331 C0.155747794,40.2599477 2.23910072,42.2151511 4.79600143,42.2031559 L24.1882981,42.1105694 L32.325685,42.0718355 C29.2837089,39.3778503 28.0257952,35.18708 29.0790517,31.2555968 C30.0859576,27.5965103 32.9373381,24.7388556 36.5853472,23.7327841 C40.2333563,22.7267126 44.1398584,23.7206349 46.8692642,26.3492972 C46.9481888,26.4241828 47.0241109,26.5012203 47.1021776,26.5782579 L47.1021776,26.5782579 Z M17.2648064,31.6885562 L8.20777597,31.7561254 L8.19362104,31.7561254 C7.578825,31.7996022 6.99103681,31.4960482 6.66902872,30.9687736 C6.34702063,30.441499 6.34435397,29.7782081 6.662112,29.2483441 C6.97987002,28.7184801 7.56519835,28.4101781 8.18032395,28.4486769 L17.2369254,28.3811078 C17.8528673,28.3326845 18.4442737,28.6330996 18.7699934,29.1598562 C19.0957132,29.6866127 19.1013196,30.3516915 18.7845267,30.8839006 C18.4677337,31.4161098 17.8814764,31.726519 17.2648064,31.6885562 L17.2648064,31.6885562 Z M21.7965387,25.0736593 L8.11855683,25.1407982 L8.11040698,25.1407982 C7.51532496,25.1517933 6.96054822,24.8400679 6.65895268,24.3252357 C6.35735714,23.8104034 6.35578511,23.1724255 6.65483981,22.6561032 C6.95389451,22.139781 7.50712825,21.8253071 8.10225718,21.8333497 L21.780239,21.7662109 L21.7883888,21.7662109 C22.3834712,21.7552151 22.9382487,22.0669403 23.2398446,22.5817728 C23.5414406,23.0966053 23.5430126,23.7345838 23.2439575,24.2509063 C22.9449024,24.7672288 22.391668,25.0817026 21.7965387,25.0736593 L21.7965387,25.0736593 Z M45.5991781,11.3265522 L2.56080436,11.5417444 L2.55522814,11.5417444 C1.94830051,11.5432858 1.45504018,11.0508756 1.45349675,10.441912 C1.45196055,9.8329483 1.94272435,9.33803325 2.54965199,9.33648828 L45.5880257,9.12129969 L45.5936019,9.12129969 C45.991251,9.11246807 46.36262,9.31991536 46.5646089,9.66370565 C46.7665978,10.0074959 46.7676764,10.433964 46.567429,10.7787784 C46.3671816,11.1235928 45.9968667,11.3329285 45.5991781,11.3261219 L45.5991781,11.3265522 Z M48.6051771,41.598851 L47.8026337,40.7286283 C47.2098765,41.4656942 46.5227946,42.1210748 45.759172,42.6778065 L46.5797309,43.5682568 C46.9755272,43.9799231 47.5797445,44.1113504 48.1099156,43.9010974 C48.6400866,43.6908444 48.9914715,43.1804484 48.9998002,42.6085158 C49.0060914,42.2325911 48.8635625,41.8695019 48.6034614,41.598851 L48.6051771,41.598851 Z" id="形状"></path>
              <path style="transform-origin: 43px 33px" d="M48.6063636,41.5495043 L46.3629282,39.0607258 C48.4273723,36.2461673 48.6572545,32.4641628 46.9492414,29.4147439 C45.8393375,27.3986612 43.975889,25.918164 41.7772598,25.3056395 C41.0506713,25.1029819 40.3004443,25 39.5467673,25 C35.6640556,25.0258042 32.2822068,27.6868466 31.3004163,31.488726 C30.7027971,33.7363102 31.0041179,36.1316831 32.139116,38.1560329 C33.2484685,40.1724143 35.1119302,41.6530455 37.3106661,42.2651373 C39.7100166,42.9368639 42.2803043,42.4927863 44.3235591,41.0534951 L46.582526,43.5566825 C46.8387171,43.8332035 47.1945731,43.9930332 47.5690642,43.9997776 C47.9435553,44.006522 48.3048049,43.8596071 48.570555,43.5924859 C49.1292746,43.0337557 49.1447937,42.1257087 48.6055008,41.5477578 L48.6063636,41.5495043 Z M38.0462541,39.4763954 C36.571606,39.0651851 35.3218747,38.0719174 34.5775578,36.7195274 C33.8159425,35.3617312 33.6133644,33.7549925 34.0136789,32.2471486 C34.6719,29.6968892 36.939794,27.9114213 39.5441787,27.8930959 C41.6074249,27.8962901 43.5072579,29.0297407 44.509074,30.8551791 C45.2706892,32.2129753 45.4732673,33.819714 45.0729528,35.3275579 C44.4147803,37.8782169 42.1463483,39.6638298 39.5415901,39.6816105 C39.0363217,39.6811604 38.5333946,39.6121403 38.0462541,39.4763954 L38.0462541,39.4763954 Z" id="形状">
                <animateTransform attributeName="transform" type="scale" values="0.9;1.1;0.9" dur="3s" repeatCount="indefinite" />
              </path>
              <animateTransform attributeName="transform" type="rotate" values="-6 0 0;6 0 0;-6 0 0" dur="3s" repeatCount="indefinite" />
            </g>
          </g>
        </g>
      </g>
    </g>
  </g>
</svg>