<?xml version="1.0" encoding="UTF-8"?>
<svg width="46px" height="48px" viewBox="0 0 46 48" version="1.1" xmlns="http://www.w3.org/2000/svg" xmlns:xlink="http://www.w3.org/1999/xlink">
    <title>数量报工</title>
    <g id="外发加工" stroke="none" stroke-width="1" fill="none" fill-rule="evenodd">
        <g id="裁片仓管理" transform="translate(-157.000000, -1018.000000)">
            <g id="出库" transform="translate(15.000000, 957.000000)">
                <g id="添加外协" transform="translate(115.000000, 43.000000)">
                    <g id="数量报工" transform="translate(27.000000, 18.000000)">
                        <path d="M2.41594458,45.9978583 C1.08165523,45.9978583 0,44.9219909 0,43.5948412 L0,2.40087532 C0.00118847396,1.07456212 1.08249569,0 2.41594458,0 L38.5905152,0 C39.9197639,0.00353042602 40.9964505,1.0744558 41,2.39659181 L41,27.2684607 C35.9013019,25.2454017 30.0726639,26.93609 26.866557,31.3680887 C23.6604501,35.8000875 23.9009009,41.834294 27.4496087,46 L2.41594458,45.9978583 Z M5.90205349,32.1687309 C5.90250328,32.9454955 6.50746238,33.5893287 7.28659207,33.6422386 L16.661835,33.6422386 C17.4415154,33.5909823 18.0475804,32.9470021 18.0475804,32.1698017 C18.0475804,31.3926013 17.4415154,30.7486211 16.661835,30.6973648 L7.28659207,30.6973648 C6.50440329,30.7448782 5.89425789,31.3892784 5.89344046,32.1687309 L5.90205349,32.1687309 Z M7.1703167,25.7692523 L22.9902316,25.7692523 C23.6686558,25.5955903 24.1428566,24.9871724 24.1428566,24.2903902 C24.1428566,23.593608 23.6686558,22.9851901 22.9902316,22.8115281 L7.1703167,22.8115281 C6.5286487,22.8008195 6.02048214,23.4904554 6.02048214,24.300028 C5.94454453,25.0173954 6.45216245,25.6672314 7.1703167,25.7692523 Z M6.2078147,15.9301611 C5.95976048,16.3926223 5.95976048,16.9476329 6.2078147,17.4100941 C6.4454062,17.8543894 6.90772758,18.1344037 7.41363375,18.1404228 L26.1641195,18.1404228 C26.9426385,18.0892054 27.5477828,17.4461727 27.5477828,16.6701276 C27.5477828,15.8940824 26.9426385,15.2510497 26.1641195,15.1998324 L7.41363375,15.1998324 C6.9043615,15.2017813 6.4375487,15.4825107 6.19920176,15.9301611 L6.2078147,15.9301611 Z" id="形状" fill="#64C673" fill-rule="nonzero"></path>
                        <circle id="椭圆形" fill="#7BE4A8" cx="36" cy="38" r="10"></circle>
                        <path d="M41.6540671,37.4466715 C41.4337936,36.8858732 41.1203844,36.3827571 40.7212311,35.9501412 C40.156503,35.3364677 39.4587239,34.910261 38.6663307,34.6955554 C38.3130061,34.5994185 37.9478547,34.5657706 37.5827034,34.5657706 L33.8942311,34.5657706 L33.8942311,33.2310707 C33.8942311,33.0371947 33.6857844,32.9298419 33.5468199,33.0516153 L31.1519,35.15541 C30.9493667,35.3332631 30.9493667,35.6681398 31.1519,35.845993 L33.5482982,37.95139 C33.6872627,38.0731633 33.8957094,37.9658105 33.8957094,37.7719345 L33.8957094,36.4372346 L37.5220912,36.4372346 C38.8910392,36.4372346 40.1210227,37.5155696 40.2585089,38.9912702 C40.4166919,40.6864833 39.1793166,42.128536 37.6462722,42.128536 L32.6642476,42.128536 C32.1867419,42.128536 31.8008937,42.5483336 31.8008937,43.064268 C31.8008937,43.5818047 32.1882203,44 32.6642476,44 L37.5841817,44 C37.9478547,44 38.3144844,43.9663521 38.667809,43.8702153 C39.4602023,43.6555096 40.156503,43.2277007 40.7227094,42.6156294 C41.1218627,42.1830136 41.435272,41.6798974 41.6555455,41.1190991 C41.884689,40.5358689 42,39.9173885 42,39.281283 C41.9985217,38.6483821 41.8817324,38.0299017 41.6540671,37.4466715 Z" id="路径" fill="#DCFFEB" fill-rule="nonzero"></path>
                    </g>
                </g>
            </g>
        </g>
    </g>
</svg>