<?xml version="1.0" encoding="UTF-8"?>
<svg width="50px" height="50px" viewBox="0 0 50 50" version="1.1" xmlns="http://www.w3.org/2000/svg" xmlns:xlink="http://www.w3.org/1999/xlink">
  <title>撤销裁片入库</title>
  <g id="外发加工" stroke="none" stroke-width="1" fill="none" fill-rule="evenodd">
    <g id="裁片仓管理" transform="translate(-274.000000, -156.000000)" fill="#FFD347" fill-rule="nonzero">
      <g id="本厂出入" transform="translate(15.000000, 98.000000)">
        <g id="撤销裁片入库" transform="translate(230.000000, 40.000000)">
          <g transform="translate(29.840000, 18.000000)" id="路径">
            <path style="transform-origin: center" d="M25.9693635,47.7607677 C32.2330606,43.9702306 34.1505189,37.273615 32.4887217,31.0824044 C31.2104162,26.4074086 27.7589913,24.0067351 23.4127525,22.869574 C21.2396331,22.2378178 19.0665136,22.2378178 16.8933942,22.1114665 C16.1264109,22.1114665 15.8707498,22.2378178 15.8707498,23.1222764 L15.8707498,31.5878093 C15.2315971,31.4614581 15.1037665,31.0824044 14.8481054,30.8297019 C9.99054438,26.0283549 5.26081391,21.3533591 0.531083443,16.5520121 C0.275422337,16.2993096 -0.363730429,15.9202559 0.275422337,15.2884997 C5.38864446,10.2344502 10.6296971,5.18040073 15.8707498,0 L15.8707498,6.57026434 C15.8707498,7.58107424 15.9985804,7.96012795 17.2768859,7.96012795 C21.3674636,8.08647919 25.3302108,8.71823538 29.1651273,10.3608015 C36.4514689,13.5195824 39.9028938,19.2053881 40.2863855,26.9128136 C40.7977077,36.0101026 35.4288245,44.4756355 27.3754996,47.6344165 C27.2476691,47.6344165 27.1198385,47.7607677 26.8641774,47.7607677 C26.2250246,48.0134702 25.9693635,48.1398214 25.9693635,47.7607677 Z">
              <animateTransform attributeName="transform" type="rotate" values="-20 0 0;20 0 0;-20 0 0" dur="2s" repeatCount="indefinite" />
            </path>
          </g>
        </g>
      </g>
    </g>
  </g>
</svg>