<?xml version="1.0" encoding="UTF-8"?>
<svg width="50px" height="45px" viewBox="0 0 50 50" version="1.1" xmlns="http://www.w3.org/2000/svg" xmlns:xlink="http://www.w3.org/1999/xlink">
  <title>组长按包报工</title>
  <g style="transform: translate(1.5px,1.5px)" id="改版" stroke="none" stroke-width="1" fill="none" fill-rule="evenodd">
    <g id="出库" transform="translate(-143.000000, -60.000000)" fill="#64C673" fill-rule="nonzero">
      <g  id="出库订单" transform="translate(117.000000, 43.000000)">
        <g id="按个人报工" transform="translate(26.000000, 17.000000)">
          <g style="transform-origin: center">
            <path style="transform-origin: 33px 38px" d="M45.1284783,40.6642809 C45.4446489,40.6557422 45.7137528,40.8881748 45.7447826,41.1966003 C45.7767391,41.4426303 45.7767391,41.6573473 45.7767391,41.8899575 C45.7767391,46.3690103 42.0711168,50 37.5,50 C32.9288832,50 29.223138,46.3690103 29.223138,41.8899575 C29.2217634,41.6583414 29.2339578,41.4268347 29.2597826,41.1966003 C29.2871739,40.8924178 29.8532609,40.6642809 29.8532609,40.6642809 L29.8532609,40.6642809 Z M40.6865217,30 C43.8926775,31.1520117 46.2005229,33.9281026 46.7034783,37.2377544 L46.7034783,37.2377544 C47.4236153,37.2332811 48,37.7980573 48,38.4947439 L48,38.4947439 L48,39.5101767 L27,39.5101767 L27,38.4947439 C27.0012086,38.1601825 27.1380046,37.8397946 27.3802939,37.6040629 C27.6225832,37.3683312 27.9505185,37.2365659 28.2919565,37.2377544 C28.7933727,33.9317154 31.0949873,31.1568033 34.2952174,30 L34.2952174,30 L34.2952174,32.0577052 C34.2952174,33.7870692 35.7259596,35.1889958 37.4908696,35.1889958 C39.2557795,35.1889958 40.6865217,33.7870692 40.6865217,32.0577052 L40.6865217,32.0577052 Z" id="形状结合">
              <animateTransform attributeName="transform" type="scale" values="1;0.8;1" dur="3s" repeatCount="indefinite" />
            </path>
            <path d="M23.7080449,41.4131899 C23.703413,37.858473 24.9271215,34.4131714 27.1687957,31.6695866 L8.34002925,31.6695866 C7.86199691,31.6001418 7.52516414,31.1603268 7.57942467,30.676437 L7.57942467,29.0697586 C7.52516414,28.5858688 7.86199691,28.1460538 8.34002925,28.076609 L30.0895173,28.076609 C30.3587129,28.0907935 30.597696,28.2548859 30.70941,28.5022445 C33.15819,26.91456 36.0087846,26.0718609 38.9201365,26.0749714 L39,26.0749714 L39,4.60146555 C39,2.0601463 36.9567944,0 34.4363725,0 L4.5636275,0 C2.04320563,0 0,2.0601463 0,4.60146555 L0,44.7377488 C0,45.4308813 0.556158821,45.9933695 1.24358849,45.9954827 C1.31191259,46.0015058 1.38062763,46.0015058 1.44895173,45.9954827 C1.51982948,46.0011693 1.59104327,46.0011693 1.66192101,45.9954827 C1.93802611,45.9939044 2.20570783,45.899439 2.4225256,45.7270639 L7.54900049,41.6547669 L12.6792784,45.7270639 C13.1281263,46.0735554 13.7516396,46.0735554 14.2004876,45.7270639 L19.5247196,41.5090538 L24.1606046,45.1940608 C23.8562202,43.9573128 23.7042204,42.687444 23.7080449,41.4131899 L23.7080449,41.4131899 Z M7.58322769,14.5214584 C7.52896716,14.0375686 7.86579993,13.5977535 8.34383228,13.5283087 L30.0933203,13.5283087 C30.5713527,13.5977535 30.9081855,14.0375686 30.8539249,14.5214584 L30.8539249,16.1281368 C30.9081855,16.6120265 30.5713527,17.0518416 30.0933203,17.1212864 L8.34002925,17.1212864 C7.86199691,17.0518416 7.52516414,16.6120265 7.57942467,16.1281368 L7.58322769,14.5214584 Z M7.58322769,22.1905676 C7.52896716,21.7066778 7.86579993,21.2668628 8.34383228,21.197418 L30.0933203,21.197418 C30.5713527,21.2668628 30.9081855,21.7066778 30.8539249,22.1905676 L30.8539249,23.797246 C30.9081855,24.2811358 30.5713527,24.7209508 30.0933203,24.7903956 L8.34002925,24.7903956 C7.86199691,24.7209508 7.52516414,24.2811358 7.57942467,23.797246 L7.58322769,22.1905676 Z" id="形状"></path>
            <animateTransform attributeName="transform" type="rotate" values="-6 0 0;6 0 0;-6 0 0" dur="3s" repeatCount="indefinite" />
          </g>
        </g>
      </g>
    </g>
  </g>
</svg>