<?xml version="1.0" encoding="UTF-8"?>
<svg width="45px" height="49px" viewBox="0 0 45 49" version="1.1" xmlns="http://www.w3.org/2000/svg" xmlns:xlink="http://www.w3.org/1999/xlink">
    <title>外发加工出库</title>
    <g id="外发加工" stroke="none" stroke-width="1" fill="none" fill-rule="evenodd">
        <g id="裁片仓管理" transform="translate(-158.000000, -326.000000)" fill="#64C673" fill-rule="nonzero">
            <g id="外发加工出入" transform="translate(15.000000, 268.000000)">
                <g id="外发加工出库" transform="translate(115.000000, 40.000000)">
                    <g transform="translate(28.667731, 18.000000)" id="形状">
                        <path d="M43.079346,10 L43.079346,47.4423077 C43.079346,47.9521346 42.6459764,48.3653846 42.1113279,48.3653846 L0.968018089,48.3653846 C0.433369598,48.3653846 0,47.9521346 0,47.4423077 L0,10 L43.079346,10 Z M29.2965829,38 L11.8501038,38 C10.8325467,38 10,38.8333333 10,39.8518519 C10,40.8703704 10.8325467,41.7037037 11.8501038,41.7037037 L29.2965829,41.7037037 C30.3183671,41.7037037 31.1466868,40.8746014 31.1466868,39.8518519 C31.1466868,38.8291023 30.3183671,38 29.2965829,38 Z M20.5131659,17 C20.337406,17 20.1616462,17.0370371 19.9951368,17.0833333 C19.5973644,17.1111111 19.2088426,17.2592593 18.8850745,17.5462963 L12.6132225,23.1666667 C11.8546799,23.8425926 11.7899263,25.0092593 12.4744647,25.7685186 C13.1497526,26.5277778 14.3245685,26.5925926 15.0831111,25.9166667 L18.663062,22.712963 L18.663062,34.5462963 C18.663062,35.5648148 19.4956087,36.3981482 20.5131659,36.3981482 C21.530723,36.3981482 22.3632697,35.5648148 22.3632697,34.5462963 L22.3632697,23.0648148 L25.5546988,25.9166667 C26.3132414,26.6018518 27.4880573,26.5370371 28.1633452,25.7685186 C28.8478836,25.0092593 28.78313,23.8333334 28.0153369,23.1574074 L22.030251,17.7962963 C21.6972323,17.3148148 21.1422012,17 20.5131659,17 Z M38.2376922,0 C38.5790716,0 38.8965047,0.163091183 39.0781825,0.431826923 L43.4116155,6.84201923 L0.667788462,6.84201923 L5.00115936,0.431826923 C5.1828372,0.163091183 5.50027028,0 5.84164965,0 L38.2376922,0 Z" transform="translate(21.705808, 24.182692) scale(-1, 1) translate(-21.705808, -24.182692) "></path>
                    </g>
                </g>
            </g>
        </g>
    </g>
</svg>