<?xml version="1.0" encoding="UTF-8"?>
<svg width="45px" height="49px" viewBox="0 0 45 49" version="1.1" xmlns="http://www.w3.org/2000/svg" xmlns:xlink="http://www.w3.org/1999/xlink">
  <title>外发加工出库</title>
  <g id="外发加工" stroke="none" stroke-width="1" fill="none" fill-rule="evenodd">
    <g id="裁片仓管理" transform="translate(-158.000000, -326.000000)" fill-rule="nonzero">
      <g id="外发加工出入" transform="translate(15.000000, 268.000000)">
        <g id="外发加工出库" transform="translate(115.000000, 40.000000)">
          <g transform="translate(28.667731, 18.000000)">
            <path d="M43.079346,10 L43.079346,47.4423077 C43.079346,47.9521346 42.6459764,48.3653846 42.1113279,48.3653846 L0.968018089,48.3653846 C0.433369598,48.3653846 0,47.9521346 0,47.4423077 L0,10 L43.079346,10 Z M38.2376922,0 C38.5790716,0 38.8965047,0.163091183 39.0781825,0.431826923 L43.4116155,6.84201923 L0.667788462,6.84201923 L5.00115936,0.431826923 C5.1828372,0.163091183 5.50027028,0 5.84164965,0 L38.2376922,0 Z" id="形状" fill="#64C673" transform="translate(21.705808, 24.182692) scale(-1, 1) translate(-21.705808, -24.182692) "></path>
            <path  d="M13.4744647,27.6296296 C14.1497526,26.8703703 15.3245685,26.8055556 16.0831111,27.4814815 L19.663062,30.6851852 L19.663062,18.8518518 C19.663062,17.8333333 20.4956087,17 21.5131659,17 C22.530723,17 23.3632697,17.8333333 23.3632697,18.8518518 L23.3632697,30.3333333 L26.5546988,27.4814815 C27.3132414,26.7962963 28.4880573,26.8611111 29.1633452,27.6296296 C29.8478836,28.3888889 29.78313,29.5648148 29.0153369,30.2407407 L23.030251,35.6018518 C22.6972323,36.0833333 22.1422012,36.3981482 21.5131659,36.3981482 C21.337406,36.3981482 21.1616462,36.3611111 20.9951368,36.3148148 C20.5973644,36.2870371 20.2088426,36.1388889 19.8850745,35.8518518 L13.6132225,30.2314815 C12.8546799,29.5555556 12.7899263,28.3888889 13.4744647,27.6296296 L13.4744647,27.6296296 Z" id="路径" fill="#ECF8F3" transform="translate(21.318443, 26.699074) scale(1, -1) translate(-21.318443, -26.699074) ">
<!--              <animateTransform attributeName="transform" type="translate" values="0 0;0 -10;" dur="2s" repeatCount="indefinite"/>-->
              <animate attributeName="opacity" values="0;1" dur="2s" repeatCount="indefinite" />
            </path>
            <path style="transform-origin: 21px 40px" d="M30.2965829,41.7037037 L12.8501038,41.7037037 C11.8325467,41.7037037 11,40.8703704 11,39.8518518 C11,38.8333333 11.8325467,38 12.8501038,38 L30.2965829,38 C31.3183671,38 32.1466868,38.8291023 32.1466868,39.8518519 C32.1466868,40.8746014 31.3183671,41.7037037 30.2965829,41.7037037 Z" id="路径" fill="#ECF8F3" transform="translate(21.573343, 39.851852) scale(1, -1) translate(-21.573343, -39.851852) ">
              <animateTransform attributeName="transform" type="scale" values="1;0" dur="2s" repeatCount="indefinite"/>
              <animate attributeName="opacity" values="1;0" dur="2s" repeatCount="indefinite" />
            </path>
          </g>
        </g>
      </g>
    </g>
  </g>
</svg>