<?xml version="1.0" encoding="UTF-8"?>
<svg width="50px" height="60px" viewBox="0 0 50 60" version="1.1" xmlns="http://www.w3.org/2000/svg" xmlns:xlink="http://www.w3.org/1999/xlink">
  <title>裁片入库</title>
  <g id="main" stroke="none" stroke-width="1" fill="none" fill-rule="evenodd">
    <g id="裁片仓管理" transform="translate(-41.000000, -156.000000)" fill-rule="nonzero">
      <g id="本厂出入" transform="translate(15.000000, 98.000000)">
        <g id="裁片入库" transform="translate(0.000000, 40.000000)">
          <g transform="translate(26.000000, 18.000000)">
            <path style="transform-origin: 30px 42px" d="M34.6130503,35.6078345 L42.9319309,35.6078345 C44.0737381,35.6078345 45,36.5624775 45,37.7392701 L45,42.0501736 C45,43.2269662 44.0737381,44.1816091 42.9319309,44.1816091 L34.6130503,44.1816091 L34.6130503,46.7333278 C34.6130503,48.5165288 32.6148878,49.5132 31.2575354,48.408456 L22.7871905,41.4978015 C21.7327666,40.6392233 21.7385921,38.9941153 22.7988416,38.141541 L31.2691865,31.3269513 C32.6265389,30.2342153 34.6130503,31.2308866 34.6130503,33.0080836 L34.6130503,35.6078345 Z" fill="#8FD2FC">
              <animateTransform attributeName="transform" type="scale" values="0.8;1.25;0.8" dur="2s" repeatCount="indefinite" />
            </path>
            <path d="M21.4966358,0.880197461 L1.49663584,16.9284193 C0.550496841,17.6876117 5.36976067e-15,18.8351463 0,20.0482218 L0,42.8714703 C-1.73547709e-16,45.0806093 1.790861,46.8714703 4,46.8714703 L24.8044369,46.8714703 L24.8044369,46.8714703 L21.071618,43.9145083 C19.7578973,42.8729169 19.0055462,41.3163166 19.0113335,39.6381972 C19.0171208,37.9600779 19.7810465,36.4092641 21.1005546,35.3792461 L29.5153123,28.8114341 C30.4817941,28.0533871 31.63347,27.6598971 32.8488064,27.6598971 C35.551483,27.6598971 37.7969617,29.6389206 38.2136484,32.2197524 L46.6515553,32.2197524 C47.1203279,32.2197524 47.5659513,32.3007651 48,32.4107108 L48,20.0482218 C48,18.8351463 47.4495032,17.6876117 46.5033642,16.9284193 L26.5033642,0.880197461 C25.0407764,-0.293399154 22.9592236,-0.293399154 21.4966358,0.880197461 Z M4.6993007,42.6530254 L4.6993007,33.2555571 L14.0979021,33.2555571 L14.0979021,42.6530254 L4.6993007,42.6530254 Z M4.6993007,28.782501 L4.6993007,19.3850327 L14.0979021,19.3850327 L14.0979021,28.782501 L4.6993007,28.782501 Z" id="形状" fill="#0C99F2"></path>
          </g>
        </g>
      </g>
    </g>
    <animateTransform attributeName="transform" type="translate" values="0 0;0 10;0 0" dur="3s" repeatCount="indefinite" />
  </g>
</svg>