<?xml version="1.0" encoding="UTF-8"?>
<svg width="50px" height="52px" viewBox="0 0 50 52" version="1.1" xmlns="http://www.w3.org/2000/svg" xmlns:xlink="http://www.w3.org/1999/xlink">
    <title>按包报工</title>
    <g id="外发加工" stroke="none" stroke-width="1" fill="none" fill-rule="evenodd">
        <g id="裁片仓管理" transform="translate(-40.000000, -494.000000)" fill-rule="nonzero">
            <g id="出库" transform="translate(15.000000, 438.000000)">
                <g id="出库订单" transform="translate(0.000000, 43.000000)">
                    <g id="按包报工" transform="translate(25.000000, 13.000000)">
                        <g id="编组">
                            <circle id="椭圆形" fill="#FFD347" cx="25.1" cy="12.4" r="11.5"></circle>
                            <path d="M50,51.1 L0.1,51.1 C0.1,37.3 11.3,26.2 25.1,26.2 C28.9,26.2 32.5,27 35.8,28.6 C36,28.7 36.1,28.9 36.1,29.1 L36.1,40.4 C36.1,41.5 37,42.4 38.1,42.4 L48.1,42.4 C48.3,42.4 48.5,42.5 48.6,42.7 C49.5,45.2 50,48.1 50,51.1 Z" id="路径" fill="#FFD347"></path>
                            <g transform="translate(16.000000, 31.000000)" fill="#FFFFFF" id="路径">
                                <g transform="translate(0.000000, 9.000000)">
                                    <path d="M17.3,8.4 L10.3,8.4 C10,8.4 9.8,8.2 9.8,7.9 L9.8,0.9 C9.8,0.6 10,0.4 10.3,0.4 L17.3,0.4 C17.6,0.4 17.8,0.6 17.8,0.9 L17.8,7.9 C17.8,8.2 17.6,8.4 17.3,8.4 Z"></path>
                                    <path d="M7.8,8.4 L0.8,8.4 C0.5,8.4 0.3,8.2 0.3,7.9 L0.3,0.9 C0.3,0.6 0.5,0.4 0.8,0.4 L7.8,0.4 C8.1,0.4 8.3,0.6 8.3,0.9 L8.3,7.9 C8.3,8.2 8.1,8.4 7.8,8.4 Z"></path>
                                </g>
                                <path d="M12.7,8.3 L5.7,8.3 C5.4,8.3 5.2,8.1 5.2,7.8 L5.2,0.8 C5.2,0.5 5.4,0.3 5.7,0.3 L12.7,0.3 C13,0.3 13.2,0.5 13.2,0.8 L13.2,7.8 C13.2,8.1 13,8.3 12.7,8.3 Z"></path>
                            </g>
                        </g>
                        <path d="M47,35.9 C47,36.5 46.6,36.9 46,36.9 L41.5,36.9 L42.6,38.1 C43,38.5 43,39.1 42.6,39.5 C42.4,39.7 42.2,39.8 41.9,39.8 C41.6,39.8 41.4,39.7 41.2,39.5 L38.3,36.6 C38.1,36.4 38,36.2 38,35.9 C38,35.6 38.1,35.4 38.3,35.2 L41.2,32.4 C41.6,32 42.2,32 42.6,32.4 C43,32.8 43,33.4 42.6,33.8 L41.5,34.9 L46,34.9 C46.6,34.9 47,35.3 47,35.9 Z" id="路径" fill="#FFD347"></path>
                    </g>
                </g>
            </g>
        </g>
    </g>
</svg>