<?xml version="1.0" encoding="UTF-8"?>
<svg width="49px" height="50px" viewBox="0 0 49 50" version="1.1" xmlns="http://www.w3.org/2000/svg" xmlns:xlink="http://www.w3.org/1999/xlink">
  <title>外发加工入库</title>
  <g id="外发加工" stroke="none" stroke-width="1" fill="none" fill-rule="evenodd">
    <g id="裁片仓管理" transform="translate(-41.000000, -326.000000)" fill-rule="nonzero">
      <g id="外发加工出入" transform="translate(15.000000, 268.000000)">
        <g id="外发加工入库" transform="translate(0.000000, 40.000000)">
          <g transform="translate(26.000000, 18.000000)">
            <path d="M31.9927299,13 L16.9981825,13 C14.2398369,12.9948564 12.0050015,10.6965266 12,7.85981306 L12,5.14018689 C12,2.30841118 14.2446383,0 16.9981825,0 L32.0018176,0 C34.7553617,0 37,2.30841124 37,5.14018689 L37,7.85981306 C36.9909124,10.6915888 34.7553617,13 31.9927299,13 Z M16.9981825,2.80373832 C15.7434462,2.80373832 14.7262814,3.84980197 14.7262814,5.14018689 L14.7262814,7.85981306 C14.7262814,9.150198 15.7434461,10.1962617 16.9981825,10.1962617 L32.0018176,10.1962617 C33.2565539,10.1962617 34.2737186,9.15019798 34.2737186,7.85981306 L34.2737186,5.14018689 C34.2737186,3.84980199 33.2565539,2.80373832 32.0018176,2.80373832 L16.9981825,2.80373832 Z" id="形状" fill="#8FD2FC"></path>
            <path d="M45.2997923,7.33333333 L35.8365112,7.33333333 L12.6454597,6 L3.70020768,6 C1.65584296,6 0,7.71296294 0,9.82407406 L0,46.1759259 C0,48.2870371 1.65584291,50 3.70020768,50 L45.2997923,50 C47.344157,50 49,48.2870371 49,46.1759259 L49,11.0370371 C49,8.99074078 47.3441571,7.33333333 45.2997923,7.33333333 Z" id="形状" fill="#0C99F2"></path>
            <path d="M16.6509345,26.5462963 C17.3262224,25.787037 18.5010383,25.7222222 19.2595809,26.3981482 L22.8395318,29.6018518 L22.8395318,17.7685185 C22.8395318,16.75 23.6720785,15.9166667 24.6896357,15.9166667 C25.7071928,15.9166667 26.5397395,16.75 26.5397395,17.7685185 L26.5397395,29.25 L29.7311686,26.3981482 C30.4897112,25.712963 31.6645271,25.7777778 32.339815,26.5462963 C33.0243534,27.3055556 32.9595998,28.4814814 32.1918067,29.1574074 L26.2067208,34.5185185 C25.8737021,35 25.3186709,35.3148148 24.6896357,35.3148148 C24.5138758,35.3148148 24.338116,35.2777778 24.1716066,35.2314815 C23.7738342,35.2037037 23.3853124,35.0555556 23.0615443,34.7685185 L16.7896923,29.1481482 C16.0311497,28.4722222 15.9663961,27.3055556 16.6509345,26.5462963 L16.6509345,26.5462963 Z" id="路径" fill="#E8F2F9">
              <animateTransform attributeName="transform" type="translate" values="0 -10;0 0;" dur="2s" repeatCount="indefinite"/>
              <animate attributeName="opacity" values="1;0" dur="2s" repeatCount="indefinite" />
            </path>
            <path style="transform-origin: 24px 40px" d="M33.4128752,41.1481482 L15.9663961,41.1481482 C14.948839,41.1481482 14.1162923,40.3148148 14.1162923,39.2962963 C14.1162923,38.2777777 14.948839,37.4444444 15.9663961,37.4444444 L33.4128752,37.4444444 C34.4346593,37.4444444 35.262979,38.2735468 35.262979,39.2962963 C35.262979,40.3190458 34.4346593,41.1481482 33.4128752,41.1481482 Z" id="路径" fill="#E8F2F9">
              <animateTransform attributeName="transform" type="scale" values="0;1" dur="2s" repeatCount="indefinite"/>
              <animate attributeName="opacity" values="0;1" dur="2s" repeatCount="indefinite" />
            </path>
          </g>
        </g>
      </g>
    </g>
  </g>
</svg>