<?xml version="1.0" encoding="UTF-8"?>
<svg width="52px" height="52px" viewBox="0 0 54 48" version="1.1" xmlns="http://www.w3.org/2000/svg" xmlns:xlink="http://www.w3.org/1999/xlink">
  <title>外协收货</title>
  <g id="外发加工" stroke="none" stroke-width="1" fill="none" fill-rule="evenodd">
    <g id="裁片仓管理" transform="translate(-154.000000, -845.000000)" fill-rule="nonzero">
      <g id="出库" transform="translate(15.000000, 784.000000)">
        <g id="添加外协" transform="translate(115.000000, 43.000000)">
          <g id="外协收货" transform="translate(24.000000, 18.000000)">
            <g style="transform-origin: center">
              <path d="M0.00295881651,13.62644 L19.0280003,24.7310165 L19.019124,24.8297371 L19.019124,47 L0,35.8984151 L0,13.6922538 L0.00295881651,13.62644 Z M40.9970413,13.6144739 L40.9970413,26.9268028 L40.6212745,26.938769 C36.9779253,27.1219741 33.6217014,28.9936367 31.5247931,32.0115962 C29.4278847,35.0295558 28.8246146,38.8565649 29.8897308,42.3840621 L21.9779173,47 L21.9779173,24.7758895 L21.9749586,24.7220419 L41,13.6144739 L40.9970413,13.6144739 Z M9.60424334,6.36000252 L9.75810062,6.50658774 L9.93858704,6.62924064 L28.4902216,17.4585958 L20.4866854,22.1313729 L1.53265502,11.0686779 L9.6012846,6.36000252 L9.60424334,6.36000252 Z M20.4955618,0 L39.4466335,11.0626949 L31.4460562,15.7294889 L12.4979433,4.66978545 L20.4985206,0 L20.4955618,0 Z" id="形状" fill="#64C673"></path>
              <path style="transform-origin: 43px 39px" d="M43,30 C47.9705627,30 52,34.0294373 52,39 C52,43.9705627 47.9705627,48 43,48 C38.0294373,48 34,43.9705627 34,39 C34,34.0294373 38.0294373,30 43,30 Z M47.158,34.86 L41.668,40.347 L39.121,37.8 L37,39.921 L39.547,42.468 L39.52,42.498 L41.641,44.619 L49.279,36.981 L47.158,34.86 L47.158,34.86 Z" id="形状" fill="#7BE4A8">
                <animateTransform attributeName="transform" type="rotate" values="-30 0 0;30 0 0;-30 0 0" dur="3s" repeatCount="indefinite" />
              </path>
              <animateTransform attributeName="transform" type="scale" values="0.8;1;0.8" dur="3s" repeatCount="indefinite" />
            </g>
          </g>
        </g>
      </g>
    </g>
  </g>
</svg>