<?xml version="1.0" encoding="UTF-8"?>
<svg width="56px" height="55px" viewBox="0 0 40 53" version="1.1" xmlns="http://www.w3.org/2000/svg" xmlns:xlink="http://www.w3.org/1999/xlink">
  <title>添加外协</title>
  <g id="外发加工" stroke="none" stroke-width="1" fill="none" fill-rule="evenodd">
    <g id="裁片仓管理" transform="translate(-45.000000, -845.000000)">
      <g id="出库" transform="translate(15.000000, 784.000000)">
        <g id="添加外协" transform="translate(0.000000, 43.000000)">
          <g transform="translate(30.000000, 18.000000)">
            <path d="M15,6 L22,6 C23.6568542,6 25,4.65685425 25,3 C25,1.34314575 23.6568542,0 22,0 L15,0 C13.3431458,0 12,1.34314575 12,3 C12,4.65685425 13.3431458,6 15,6 Z" id="路径" fill="#497FF4" fill-rule="nonzero"></path>
            <path d="M32.2855556,28.6559436 C33.201971,28.6557259 34.1144952,28.7715982 35,29.0006236 L35,8.15293308 C34.992882,5.86219874 33.0810452,4.00690748 30.7204938,4 L26.5723457,4 C26.5253628,6.27943434 24.6102363,8.1047641 22.2608642,8.10932393 L12.74,8.10932393 C10.3906279,8.1047641 8.47550135,6.27943434 8.42851852,4 L4.28037037,4 C1.91967777,4.00690507 0.00759218562,5.86206309 0,8.15293308 L0,38.8470669 C0.00712040297,41.1381274 1.91948155,42.9935528 4.28037037,43 L22.6938272,43 C21.2473697,39.8470704 21.5429783,36.1980334 23.4793671,33.3031774 C25.4157559,30.4083214 28.7299611,28.6607709 32.2864198,28.6592981 L32.2855556,28.6559436 Z M6.91358025,14.6506967 L28.0864198,14.6506967 C28.8023444,14.6506967 29.382716,15.2139029 29.382716,15.908653 C29.382716,16.6034031 28.8023444,17.1666093 28.0864198,17.1666093 L6.91358025,17.1666093 C6.19765557,17.1666093 5.61728395,16.6034031 5.61728395,15.908653 C5.61728395,15.2139029 6.19765557,14.6506967 6.91358025,14.6506967 Z M5.61728395,23.4924523 C5.6191824,22.8633102 6.14427555,22.3537475 6.79259259,22.3519052 L23.9806173,22.3519052 C24.6289343,22.3537475 25.1540275,22.8633102 25.1559259,23.4924523 L25.1559259,23.7272708 C25.1540275,24.3564128 24.6289343,24.8659755 23.9806173,24.8678178 L6.79259259,24.8678178 C6.14427555,24.8659755 5.6191824,24.3564128 5.61728395,23.7272708 L5.61728395,23.4924523 Z M18.1559259,31.3756451 C18.154027,32.0335034 17.6049455,32.5663449 16.927037,32.5681877 L6.84617284,32.5681877 C6.16826436,32.5663449 5.61918287,32.0335034 5.61728395,31.3756451 L5.61728395,31.2448177 C5.61918287,30.5869594 6.16826436,30.0541178 6.84617284,30.0522751 L16.927037,30.0522751 C17.6049455,30.0541178 18.154027,30.5869594 18.1559259,31.2448177 L18.1559259,31.3756451 Z" id="形状" fill="#497FF4" fill-rule="nonzero"></path>
            <path d="M32,30 C27.0294373,30 23,34.0294373 23,39 C23,43.9705627 27.0294373,48 32,48 C36.9705627,48 41,43.9705627 41,39 C41,34.0294373 36.9705627,30 32,30 Z" id="形状" fill="#91B4FF" fill-rule="nonzero"></path>
            <path style="transform-origin: 32px 39px" d="M32,34 C32.517767,34 32.9375,34.419733 32.9375,34.9375 L32.937,38.062 L36.0625,38.0625 C36.580267,38.0625 37,38.482233 37,39 C37,39.517767 36.580267,39.9375 36.0625,39.9375 L32.937,39.937 L32.9375,43.0625 C32.9375,43.580267 32.517767,44 32,44 C31.482233,44 31.0625,43.580267 31.0625,43.0625 L31.062,39.937 L27.9375,39.9375 C27.419733,39.9375 27,39.517767 27,39 C27,38.482233 27.419733,38.0625 27.9375,38.0625 L31.062,38.062 L31.0625,34.9375 C31.0625,34.419733 31.482233,34 32,34 Z" id="形状结合" fill="#FFFFFF">
              <animateTransform attributeName="transform" type="scale" values="0.7;1.3;0.7" dur="3s" repeatCount="indefinite" />
            </path>
          </g>
        </g>
      </g>
    </g>
    <animateTransform attributeName="transform" type="rotate" values="0 0 0;10 0 0;0 0 0" dur="3s" repeatCount="indefinite" />
  </g>
</svg>