<?xml version="1.0" encoding="UTF-8"?>
<svg width="48px" height="54px" viewBox="0 0 51 48" version="1.1" xmlns="http://www.w3.org/2000/svg" xmlns:xlink="http://www.w3.org/1999/xlink">
  <title>质检</title>
  <g id="外发加工" stroke="none" stroke-width="1" fill="none" fill-rule="evenodd">
    <g id="裁片仓管理" transform="translate(-41.000000, -1191.000000)" fill-rule="nonzero">
      <g id="出库" transform="translate(14.500000, 1130.000000)">
        <g id="添加外协" transform="translate(0.500000, 43.000000)">
          <g id="质检" transform="translate(26.000000, 18.000000)">
            <path d="M29.0547294,47.9941966 L23.8962491,47.9941966 L23.8962491,47.9883933 L5.38470717,47.9883933 C3.93316171,47.9767865 2.55101284,47.3500227 1.57367745,46.2647927 C0.573209865,45.1795628 0.0122540499,43.7635408 0.000687950571,42.2894851 L0.000687950571,5.69344147 C-0.022444248,4.17876222 0.538511568,2.71631328 1.57367745,1.60786984 C2.56836199,0.569066824 3.95051086,-0.0112700556 5.38470717,0.000165868647 L17.9397079,0.000165868647 C18.6972875,0.0177467883 19.4375178,0.209257959 20.1083516,0.563263455 C20.738704,0.882448739 21.3170089,1.30029129 21.8259173,1.79938101 L25.7121267,6.598767 C26.1227232,7.16169378 26.7299434,7.54471612 27.4123433,7.68399697 L44.6111329,7.68399697 C46.4790579,7.6781936 47.994217,9.19287286 48,11.0615576 L48,22.9120367 C45.9296682,22.8133794 43.8940348,22.302683 42.0203267,21.4147675 C41.2916624,21.0781722 40.6034795,20.6487229 39.9789101,20.1380264 C39.4815679,19.6389367 38.8107341,19.3545716 38.1052021,19.3487683 C37.4690666,19.3197514 36.8676294,19.6157232 36.4975143,20.1380264 C33.8430945,22.0009078 30.6739833,22.9816771 27.4354755,22.9352502 C26.6952451,22.9294468 25.98393,23.2196152 25.4576725,23.7477218 C24.931415,24.2758284 24.6422625,24.9896427 24.6480455,25.7324739 L24.6480455,38.3257842 C24.6249133,39.4110142 24.7637065,40.4846374 25.0644251,41.5176371 C25.7583911,44.0130856 27.146323,46.2647927 29.0605124,48 L29.0547294,47.9941966 L29.0547294,47.9941966 Z M3.36642284,19.7201839 L3.36642284,19.9465152 C3.36642284,20.6313128 3.91581256,21.1826328 4.59821242,21.1826328 L15.5917898,21.1826328 C16.2684066,21.1826328 16.8235794,20.6313128 16.8235794,19.9465152 L16.8235794,19.7201839 C16.8235794,19.0353863 16.2741897,18.4840663 15.5917898,18.4840663 L4.60399547,18.4840663 C3.92737866,18.4840663 3.37220589,19.0353863 3.36642284,19.7201839 Z M3.36642284,13.6440567 L3.36642284,13.8703881 C3.36642284,14.5493823 3.91581256,15.1065057 4.59821242,15.1065057 L23.6764932,15.1065057 C24.3588931,15.1065057 24.9082828,14.5551856 24.9082828,13.8703881 L24.9082828,13.6440567 C24.9082828,12.9592592 24.3588931,12.4079392 23.6764932,12.4079392 L4.60399547,12.4079392 C3.92159561,12.4079392 3.37220589,12.9592592 3.36642284,13.6440567 Z" id="形状" fill="#DE3832"></path>
            <path style="transform-origin: 34px 30px" d="M37.4021713,22.0016118 C37.9441712,22.0074911 38.4631073,22.2309049 38.8494265,22.6189393 C39.3971924,23.0657667 39.9910859,23.4361632 40.6368731,23.71837 C42.2801708,24.4591629 44.0560855,24.8354387 45.8492981,24.8119215 C46.9621278,24.8119215 47.7462979,25.9525074 48,27.010783 L48,36.8939012 C47.9654043,38.7341249 47.4291703,40.5273141 46.4489576,42.0735723 C44.788362,44.7486579 41.9630432,46.6947091 38.0364265,47.8705709 C37.8865117,47.9705191 37.702001,48.0175536 37.5174904,47.9940364 C37.2407245,47.9940364 36.9639586,47.9528812 36.6929586,47.8764502 C34.5710865,47.2943986 32.5875973,46.2772782 30.8635762,44.8897613 C29.6700231,43.8961581 28.6955764,42.6556239 28.0094275,41.2504691 C27.3348106,39.9041074 26.9888532,38.4107629 27.0003851,36.8939012 L27.0003851,27.010783 C26.9888532,26.3993349 27.2367893,25.811404 27.680768,25.3998524 C28.084385,25.0235766 28.614853,24.8178008 29.156853,24.8178008 C31.6592782,24.8530766 34.1098099,24.0828872 36.1567246,22.6189393 C36.4392565,22.2132669 36.9120649,21.9780946 37.4021713,22.0016118 Z M38.1921074,29.5153686 L36.906299,32.4726609 L33.6773631,32.8019022 L35.9376182,35.100712 L35.2918311,38.0580044 L38.1921074,36.7410392 L40.775256,38.0638837 L40.4523625,35.1065913 L42.389724,32.8019022 L39.4836817,32.4726609 L38.1921074,29.5153686 Z" id="形状结合" fill="#E46D68">
              <animateTransform attributeName="transform" type="scale" values="0.9;1.2;0.9" dur="2s" repeatCount="indefinite" />
            </path>
          </g>
        </g>
      </g>
    </g>
  </g>
</svg>