<?xml version="1.0" encoding="UTF-8"?>
<svg width="67px" height="48px" viewBox="0 0 67 48" version="1.1" xmlns="http://www.w3.org/2000/svg" xmlns:xlink="http://www.w3.org/1999/xlink">
  <title>返修车 </title>
  <g id="外发加工" stroke="none" stroke-width="1" fill="none" fill-rule="evenodd">
    <g id="裁片仓管理" transform="translate(-146.000000, -1191.000000)" fill-rule="nonzero">
      <g id="出库" transform="translate(14.500000, 1130.000000)">
        <g id="添加外协" transform="translate(115.500000, 43.000000)">
          <g id="返修车-" transform="translate(16.000000, 18.000000)">
            <path style="transform-origin: bottom" d="M59.4215556,11.0769231 L67,18.5944615 L67,44.3076923 L61.0965556,44.3076923 C60.3071881,46.5194128 58.1985804,47.9977712 55.8333333,47.9977712 C53.4680863,47.9977712 51.3594786,46.5194128 50.5701111,44.3076923 L44.6666667,44.3076923 L44.6666667,11.0769231 L59.4215556,11.0769231 Z M40.9444444,0 L40.9444444,44.3076923 L18.291,44.3076923 C17.5837777,46.3015384 15.7598889,47.7673846 13.5637777,47.9741538 L13.0277777,48 C10.6619478,48 8.55316554,46.520292 7.76455558,44.3076923 L0,44.3076923 L0,0 L40.9444444,0 Z M55.8333333,18.4615384 L52.1111111,18.4615384 L52.1111111,25.8461539 L59.5555556,25.8461539 L59.5555556,22.1538461 L55.8333333,18.4615384 L55.8333333,18.4615384 Z" id="形状" fill="#FFD347">
              <animateTransform attributeName="transform" type="scale" values="0.9;1;0.9" dur="2s" repeatCount="indefinite" />
            </path>
            <path style="transform-origin: 20px 22px" d="M29.3619771,17.5555568 L25.4630395,22.0314396 L28.5660472,22.0266547 C28.5660472,26.1496504 24.6383411,30.4540739 20.4469232,30.4540739 C19.1679214,30.4540739 17.4018521,30.111953 16.3533983,29.5505238 L14.5833333,30.4540739 C16.2003347,31.4650625 18.0700943,32.0008472 19.9782356,31.999999 C25.5753168,31.999999 30.1115577,27.5404637 30.1115577,22.0314396 L33,22.0266547 L29.3619771,17.5555568 L29.3619771,17.5555568 Z M11.7313514,22.1162918 C11.7313514,17.9321953 15.7961605,13.5688382 19.9131782,13.5688382 C21.1705015,13.5688382 22.8191928,13.919671 23.8492323,14.4894204 L25.4166667,13.5688382 C23.8276478,12.5424941 21.9901202,11.9987507 20.1149466,12.0000022 C14.6173463,12.0000022 10.1603842,16.5256267 10.1603842,22.1162918 L7,22.1162918 L11.0086751,26.4444443 L14.8045905,22.1162918 L11.7309589,22.1162918 L11.7313514,22.1162918 Z" id="形状" fill="#FFF8E5">
              <animateTransform attributeName="transform" type="rotate" values="0 0 0;360 0 0" dur="3s" repeatCount="indefinite" />
            </path>
          </g>
        </g>
      </g>
    </g>
  </g>
</svg>