<?xml version="1.0" encoding="UTF-8"?>
<svg width="48px" height="45px" viewBox="0 0 48 45" version="1.1" xmlns="http://www.w3.org/2000/svg" xmlns:xlink="http://www.w3.org/1999/xlink">
    <title>铺布数据采集</title>
    <g id="外发加工" stroke="none" stroke-width="1" fill="none" fill-rule="evenodd">
        <g id="裁片仓管理" transform="translate(-41.000000, -672.000000)" fill-rule="nonzero">
            <g id="出库" transform="translate(15.000000, 611.000000)">
                <g id="出库订单" transform="translate(0.000000, 43.000000)">
                    <g id="铺布数据采集" transform="translate(26.000000, 18.000000)">
                        <path d="M47.0825943,14.1363073 L24.8938923,0.805291544 C24.6145188,0.647753053 24.3082825,0.566267627 23.9966736,0.571699989 C23.6958099,0.566267627 23.384201,0.642320691 23.0994549,0.805291544 L0.921498065,14.1363073 C0.0618873338,14.6252199 -0.255094123,15.7497187 0.223064346,16.6297613 C0.706595382,17.5098039 1.80259906,17.8303133 2.66758236,17.3414007 L23.4325541,4.83610397 C23.7817709,4.62424186 24.2223214,4.62424186 24.5661657,4.83610397 L45.3311374,17.3414007 C46.1907482,17.8303133 47.2921244,17.5152363 47.7756555,16.6297613 C48.2538139,15.7497187 47.942205,14.6252199 47.0825943,14.1363073 Z" id="路径" fill="#497FF4"></path>
                        <path d="M40.8059974,18.2555297 L24.9414986,8.94343245 C24.0972444,8.44742728 23.0552851,8.44742728 22.2110308,8.94343245 L6.34653206,18.2555297 C5.51830798,18.7408681 5,19.6368774 5,20.6128876 L5,41.7971087 C5,43.3064578 6.21294753,44.5278039 7.71443765,44.5278039 L27.9818825,44.5278039 C27.9818825,44.5278039 28.9169742,39.813088 30.2688497,38.4104067 C31.6207251,37.0077254 42.1578728,26.3889479 42.1578728,26.3889479 L42.1578728,20.6128876 C42.1525295,19.6368774 41.6395649,18.7408681 40.8059974,18.2555297 Z M17.1187886,39.7544207 C17.1134452,40.1330913 16.8088724,40.4370945 16.4294924,40.4370945 L10.2204834,40.4370945 C9.84644674,40.4370945 9.54187402,40.1330913 9.54187402,39.7544207 L9.54187402,33.4983554 C9.54187402,33.1196848 9.84644674,32.8156816 10.2204834,32.8156816 L16.4348358,32.8156816 C16.8088724,32.8156816 17.1134452,33.1196848 17.1134452,33.4983554 L17.1134452,39.7544207 L17.1187886,39.7544207 Z M17.1187886,29.7596497 C17.1134452,30.1383204 16.8088724,30.4423235 16.4294924,30.4423235 L10.2204834,30.4423235 C9.84644674,30.4423235 9.54187402,30.1383204 9.54187402,29.7596497 L9.54187402,23.5035844 C9.54187402,23.1249138 9.84644674,22.8209106 10.2204834,22.8209106 L16.4348358,22.8209106 C16.8088724,22.8209106 17.1134452,23.1249138 17.1134452,23.5035844 L17.1134452,29.7596497 L17.1187886,29.7596497 Z M26.9719835,39.7544207 C26.9719835,40.1330913 26.6674107,40.4370945 26.2933741,40.4370945 L20.0790217,40.4370945 C19.7049851,40.4370945 19.4004123,40.1330913 19.4004123,39.7544207 L19.4004123,33.4983554 C19.4004123,33.1196848 19.7049851,32.8156816 20.0790217,32.8156816 L26.2933741,32.8156816 C26.6674107,32.8156816 26.9719835,33.1196848 26.9719835,33.4983554 L26.9719835,39.7544207 L26.9719835,39.7544207 Z M26.9719835,29.7596497 C26.9719835,30.1383204 26.6674107,30.4423235 26.2933741,30.4423235 L20.0790217,30.4423235 C19.7049851,30.4423235 19.4004123,30.1383204 19.4004123,29.7596497 L19.4004123,23.5035844 C19.4004123,23.1249138 19.7049851,22.8209106 20.0790217,22.8209106 L26.2933741,22.8209106 C26.6674107,22.8209106 26.9719835,23.1249138 26.9719835,23.5035844 L26.9719835,29.7596497 L26.9719835,29.7596497 Z" id="形状" fill="#497FF4"></path>
                        <path d="M46.9615725,30.6769926 C46.9295122,30.5276578 46.8867652,30.3996564 46.8440181,30.2876552 C46.6676866,29.914318 46.421891,29.556981 46.1119749,29.2103107 C45.7967154,28.8689738 45.5028295,28.6289713 45.2463472,28.4903032 C45.1234494,28.4263025 44.9791781,28.3729686 44.8081899,28.3196347 C44.6372017,28.2663008 44.4662135,28.2396339 44.2845386,28.2343005 C44.1028636,28.2289671 43.9211886,28.2503006 43.7341703,28.3089679 C43.5471519,28.3676352 43.365477,28.4636362 43.1944888,28.5969709 C43.0609043,28.7089721 42.8899161,28.8636404 42.6815242,29.0556424 C42.4784757,29.2476444 42.3021441,29.4129794 42.1525295,29.5463142 L45.6310706,33.0343506 C45.7165647,32.9596831 45.8127456,32.8690155 45.9089264,32.7730145 C45.9944205,32.6876803 46.0959448,32.5863459 46.2134992,32.4743447 C46.3310535,32.3623436 46.4646381,32.2290088 46.6142528,32.0850073 C46.7478373,31.9356724 46.8493615,31.7810042 46.9081387,31.6210025 C46.9722593,31.4556674 46.9989762,31.2956658 46.9989762,31.1356641 C47.0043196,30.9809958 46.9882894,30.8209941 46.9615725,30.6769926 L46.9615725,30.6769926 Z" id="路径" fill="#91B4FF"></path>
                        <path d="M33.8809754,37.8237339 C33.4748784,38.2290715 33.132902,38.5810751 32.8603896,38.8584114 C32.5878771,39.1357476 32.4115455,39.3170828 32.3367382,39.3917503 C32.1604066,39.5677521 32.0321655,39.7277538 31.9359846,39.8664219 C31.8451471,40.0104234 31.759653,40.1650917 31.6848457,40.3410935 C31.6207251,40.4530947 31.5405744,40.6557635 31.4390502,40.9597666 C31.3375259,41.2584364 31.2360017,41.5837732 31.1344774,41.9411102 C31.0276098,42.2984473 30.9314289,42.6397842 30.8405915,42.9651209 C30.749754,43.295791 30.6856334,43.5464603 30.6642599,43.7171288 C30.6108261,44.0424655 30.6482297,44.2718012 30.7550974,44.4104693 C30.8673084,44.5438041 31.0917304,44.5971379 31.42302,44.5598042 C31.5833214,44.5384707 31.8237736,44.4798034 32.1604066,44.3891358 C32.4916963,44.3038015 32.8336726,44.2024672 33.202366,44.0851326 C33.5710593,43.967798 33.918379,43.8451301 34.2496687,43.7224621 C34.5863017,43.5997942 34.8374406,43.487793 35.0137722,43.4077922 C35.1901038,43.3331247 35.3557486,43.2317904 35.5213934,43.1091224 C35.6816948,42.9864545 35.8206227,42.8637865 35.9488639,42.7517853 C36.0022977,42.7144516 36.1519124,42.5651167 36.4137381,42.3037807 C36.6755637,42.0424446 37.00151,41.7064411 37.4022636,41.3064369 C37.7976738,40.9064328 38.2465178,40.4584281 38.7434523,39.9677563 L40.2289122,38.4530738 L44.2311047,34.4370319 L40.7525636,30.9329953 L33.8809754,37.8237339 L33.8809754,37.8237339 Z" id="路径" fill="#91B4FF"></path>
                    </g>
                </g>
            </g>
        </g>
    </g>
</svg>